<?xml version="1.0" encoding="utf-8"?>
<!-- Generator: Adobe Illustrator 15.0.0, SVG Export Plug-In . SVG Version: 6.00 Build 0)  -->
<!DOCTYPE svg PUBLIC "-//W3C//DTD SVG 1.1//EN" "http://www.w3.org/Graphics/SVG/1.1/DTD/svg11.dtd">
<svg version="1.1" id="Layer_1" xmlns="http://www.w3.org/2000/svg" xmlns:xlink="http://www.w3.org/1999/xlink" x="0px" y="0px"
	 width="126px" height="124.638px" viewBox="0 0 126 124.638" enable-background="new 0 0 126 124.638" xml:space="preserve">
<path fill="#FFFFFF" d="M70.753,22.562L62.478,2.464l-7.259,19.903c2.356-0.419,4.782-0.639,7.259-0.639
	C65.312,21.729,68.08,22.016,70.753,22.562z"/>
<path fill="#FFFFFF" d="M96.829,40.227l8.362-20.07l-19.213,8.944C90.262,32.087,93.949,35.866,96.829,40.227z"/>
<path fill="#FFFFFF" d="M102.787,71.146l20.097-8.274l-19.903-7.26c0.419,2.357,0.639,4.782,0.639,7.259
	C103.619,65.705,103.333,68.473,102.787,71.146z"/>
<path fill="#FFFFFF" d="M85.122,97.223l20.069,8.362l-8.943-19.213C93.261,90.654,89.482,94.342,85.122,97.223z"/>
<path fill="#FFFFFF" d="M54.202,103.179l8.275,20.098l7.259-19.902c-2.356,0.419-4.782,0.638-7.259,0.638
	C59.643,104.012,56.875,103.725,54.202,103.179z"/>
<path fill="#FFFFFF" d="M28.126,85.514l-8.362,20.07l19.213-8.944C34.694,93.654,31.007,89.874,28.126,85.514z"/>
<path fill="#FFFFFF" d="M22.169,54.595L2.072,62.87l19.904,7.259c-0.42-2.356-0.639-4.781-0.639-7.259
	C21.336,60.036,21.624,57.268,22.169,54.595z"/>
<path fill="#FFFFFF" d="M39.834,28.519l-20.07-8.362l8.943,19.213C31.694,35.087,35.474,31.399,39.834,28.519z"/>
</svg>
