<?xml version="1.0" encoding="utf-8"?>
<!-- Generator: Adobe Illustrator 15.0.0, SVG Export Plug-In . SVG Version: 6.00 Build 0)  -->
<!DOCTYPE svg PUBLIC "-//W3C//DTD SVG 1.1//EN" "http://www.w3.org/Graphics/SVG/1.1/DTD/svg11.dtd">
<svg version="1.1" id="Layer_1" xmlns="http://www.w3.org/2000/svg" xmlns:xlink="http://www.w3.org/1999/xlink" x="0px" y="0px"
	 width="160px" height="164.667px" viewBox="0 0 160 164.667" enable-background="new 0 0 160 164.667" xml:space="preserve">
<polygon fill-rule="evenodd" clip-rule="evenodd" points="77.863,4.62 115.696,25.206 116.251,67.489 80.088,90.3 42.256,69.714 
	41.143,27.987 "/>
<polygon fill-rule="evenodd" clip-rule="evenodd" points="117.394,72.701 155.226,93.286 155.783,135.569 119.619,158.38 
	81.787,137.795 80.673,96.068 "/>
<polygon fill-rule="evenodd" clip-rule="evenodd" fill="#FFFFFF" points="78.002,11.799 109.496,28.935 109.958,64.133 
	79.855,83.121 48.362,65.985 47.436,31.25 "/>
<path fill-rule="evenodd" clip-rule="evenodd" d="M77.54,94.236c-0.351,14.245,0.725,27.063,0.463,41.219
	c-10.862,8.436-24.013,14.581-35.661,22.23c-12.377-6.611-24.651-13.325-36.587-20.378c-0.832-13.217-0.404-27.692-0.926-41.219
	c11.203-7.786,24.729-15.718,36.125-21.768C53.594,80.514,65.155,87.787,77.54,94.236z"/>
</svg>
